PathFileType	4	(X/Y/Z)	C:/Users/opensim2020/Desktop/walking_exp_matlab/subject06_walking18_straight_04.trc																																																																																																																																											
DataRate	CameraRate	NumFrames	NumMarkers	Units	OrigDataRate	OrigDataStartFrame	OrigNumFrames																																																																																																																																							
100	100	7	47	mm	100	4878	409																																																																																																																																							
Frame#	Time	LFHD			RFHD			LBHD			RBHD			C7			T10			CLAV			STRN			RBAK			LSHO			LUPA			LELB			LFRM			LWRA			LWRB			LFIN			RSHO			RUPA			RELB			RFRM			RWRA			RWRB			RFIN			LASI			RASI			LPSI			RPSI			LTHI			LKNE			LTIB			LANK			LHEE			LTOE			RTHI			RKNE			RTIB			RANK			RHEE			RTOE			*39			*40			*41			*42			*43			*44			*45			*46		
		X1	Y1	Z1	X2	Y2	Z2	X3	Y3	Z3	X4	Y4	Z4	X5	Y5	Z5	X6	Y6	Z6	X7	Y7	Z7	X8	Y8	Z8	X9	Y9	Z9	X10	Y10	Z10	X11	Y11	Z11	X12	Y12	Z12	X13	Y13	Z13	X14	Y14	Z14	X15	Y15	Z15	X16	Y16	Z16	X17	Y17	Z17	X18	Y18	Z18	X19	Y19	Z19	X20	Y20	Z20	X21	Y21	Z21	X22	Y22	Z22	X23	Y23	Z23	X24	Y24	Z24	X25	Y25	Z25	X26	Y26	Z26	X27	Y27	Z27	X28	Y28	Z28	X29	Y29	Z29	X30	Y30	Z30	X31	Y31	Z31	X32	Y32	Z32	X33	Y33	Z33	X34	Y34	Z34	X35	Y35	Z35	X36	Y36	Z36	X37	Y37	Z37	X38	Y38	Z38	X39	Y39	Z39	X40	Y40	Z40	X41	Y41	Z41	X42	Y42	Z42	X43	Y43	Z43	X44	Y44	Z44	X45	Y45	Z45	X46	Y46	Z46	X47	Y47	Z47
																																																																																																																																														
358	3.57	920.70605	1642.4198	946.05432	929.01233	1634.33875	1077.6095	785.60889	1592.55884	956.46216	795.04059	1589.87036	1083.74097	784.69507	1434.31299	1016.60327	747.74731	1104.56348	1028.81726	891.57257	1355.59558	1012.69153	928.9718	1179.4093	1012.35132	713.53851	1267.01355	1106.23938	827.47467	1383.64807	852.6507	788.81067	1183.45728	789.0282	764.27051	1073.64429	781.66626	770.10675	923.4303	757.19025	827.88666	804.72284	788.93744	761.68207	804.15326	763.82739	795.91461	720.21497	756.72717	857.60309	1393.23328	1174.88892	827.13318	1197.55627	1271.44873	840.69458	1076.48596	1284.58899	879.66925	962.81195	1294.21045	964.55109	843.29529	1247.70117	916.60999	830.90051	1293.11682	969.26013	765.07062	1286.57068	933.05908	950.31854	923.79102	918.19165	947.43909	1143.76306	773.27881	972.41583	939.98627	767.40784	974.53131	1109.41748	921.7287	639.49182	849.50873	970.72449	487.26022	880.70636	1008.83246	233.67798	886.70374	1067.81567	69.43806	924.40356	1042.8446	42.55157	976.47522	1214.27222	83.39719	913.85052	820.56543	614.65912	1176.81262	798.04279	489.93649	1153.27612	667.27124	252.9968	1143.48706	589.9494	82.96898	1094.03284	542.27893	68.47776	1050.7821	734.93195	29.32832	1083.36694	826.13782	1685.30298	1011.28864	NaN	NaN	NaN	NaN	NaN	NaN	NaN	NaN	NaN	NaN	NaN	NaN	NaN	NaN	NaN	NaN	NaN	NaN	NaN	NaN	NaN
359	3.58	927.21741	1641.52271	944.46564	935.23907	1633.54028	1076.06921	792.05646	1591.65527	954.77142	801.63873	1589.20996	1082.28113	790.17279	1434.0354	1015.58411	754.47754	1103.87378	1027.23474	898.091	1354.7959	1011.37482	935.82538	1178.70508	1011.45947	719.78088	1266.44287	1104.27722	834.49896	1382.7157	851.08344	796.24347	1182.26355	787.47681	771.93646	1072.45703	780.28412	778.17249	922.06769	756.18945	836.3045	803.77405	787.7782	770.04523	802.8114	762.79578	804.33411	719.07642	755.63654	863.4837	1392.66846	1173.45642	832.75214	1196.98853	1269.97852	846.51257	1076.00537	1283.32605	885.45569	962.36432	1293.21594	970.3819	842.75897	1246.93628	922.44312	830.41901	1292.3053	975.01447	764.59735	1285.90137	940.90674	949.50763	923.26599	924.78094	946.86578	1143.20996	780.98859	971.54547	938.66412	774.21045	973.72504	1107.99658	928.80707	638.20453	849.25128	976.71033	485.59116	880.4989	1013.64612	231.81865	886.44006	1071.38452	67.31949	924.49402	1045.25793	40.88189	975.95496	1217.57153	80.4546	915.9729	826.33319	614.15161	1176.63342	803.67914	489.34528	1153.00293	670.27563	253.73714	1143.3811	590.90436	84.55457	1094.20129	542.84155	70.82107	1050.97534	735.07098	29.31439	1083.40259	832.5246	1684.43201	1009.52539	NaN	NaN	NaN	NaN	NaN	NaN	NaN	NaN	NaN	NaN	NaN	NaN	NaN	NaN	NaN	NaN	NaN	NaN	NaN	NaN	NaN
360	3.59	933.76251	1640.6001	942.82343	941.51404	1632.74561	1074.43701	798.63513	1590.74683	952.85242	808.80585	1588.55103	1081.80359	796.47369	1433.13525	1013.74689	761.82166	1102.58716	1025.4032	904.65698	1354.03479	1009.99939	942.81134	1178.03967	1010.49988	726.37518	1265.27625	1102.57007	841.59204	1381.59583	849.49237	803.93945	1181.17542	785.9411	779.83386	1071.31946	778.72131	786.45624	920.93823	754.83722	844.13788	802.47192	787.02063	778.59607	801.5799	761.41602	813.05396	717.96008	754.45264	869.38354	1392.03052	1171.76355	838.66217	1196.55603	1268.56567	852.35223	1075.54272	1282.03137	891.23462	961.90918	1292.15625	976.27332	842.2793	1246.18384	928.30054	830.05511	1291.604	980.83417	764.13141	1285.2146	948.91919	948.62238	922.81366	931.48651	946.25177	1142.65845	789.06714	970.64563	937.21832	781.25323	972.98102	1106.5343	935.95135	636.9151	848.87677	982.77875	483.9075	880.1861	1017.92743	229.99458	886.35229	1073.85315	64.97958	924.69421	1046.6106	38.97445	975.68445	1220.08582	76.42666	917.94678	832.22498	613.53027	1176.08289	809.6673	488.72867	1152.81042	673.51392	254.47363	1143.24426	591.89288	86.27885	1094.35547	543.8512	73.09856	1051.09106	735.17316	29.27636	1083.4491	838.94128	1683.68127	1007.67621	NaN	NaN	NaN	NaN	NaN	NaN	NaN	NaN	NaN	NaN	NaN	NaN	NaN	NaN	NaN	NaN	NaN	NaN	NaN	NaN	NaN
361	3.6	940.28809	1639.79907	941.12897	947.78607	1631.99695	1072.78052	805.19391	1589.95129	950.93597	815.10272	1587.70178	1079.73267	802.94781	1431.85852	1011.69556	769.18738	1101.84802	1023.53772	911.34674	1353.35254	1008.56628	950.06519	1177.49316	1009.50421	732.77844	1264.27075	1100.70288	848.79254	1380.59338	847.82001	811.82605	1180.0564	784.37006	787.81567	1070.16675	777.15094	794.94214	919.91919	752.97577	853.24188	801.71869	785.48621	787.29047	800.3894	760.19592	821.9776	716.92505	753.2807	875.25439	1391.46216	1170.11792	844.23212	1196.10718	1267.09839	858.16718	1075.10095	1280.63135	897.03699	961.49554	1291.12756	982.16113	841.81213	1245.50354	934.05634	829.61896	1290.76965	986.65747	763.67596	1284.56531	957.07587	947.69379	922.34399	938.48938	945.65845	1142.14294	797.1358	969.90198	935.77899	789.82452	971.703	1104.69507	943.39581	635.55945	848.20532	988.79999	482.32175	879.69183	1021.98688	228.19672	886.3891	1075.69824	63.0057	925.62317	1047.62195	38.6463	976.67474	1222.22156	70.41088	919.19891	838.37518	612.93274	1175.74927	815.74121	488.03558	1152.61963	676.86133	255.30496	1143.073	591.68738	89.03874	1094.24707	544.97583	75.52743	1051.20789	735.25586	29.21309	1083.51697	845.38538	1682.86023	1005.78174	NaN	NaN	NaN	NaN	NaN	NaN	NaN	NaN	NaN	NaN	NaN	NaN	NaN	NaN	NaN	NaN	NaN	NaN	NaN	NaN	NaN
362	3.61	946.935	1639.31189	939.32928	954.10181	1631.56628	1071.11938	811.84192	1589.26782	948.82941	821.39459	1587.03162	1077.7793	810.00659	1430.58521	1009.21198	776.91528	1100.70374	1021.83606	918.06244	1352.89026	1007.05762	957.3761	1177.13135	1008.41754	739.27734	1263.28174	1098.47388	856.0105	1379.87146	845.90704	819.72211	1179.01672	782.63647	796.03119	1069.05066	775.41406	803.55878	918.69196	751.72321	862.10626	800.80902	784.21692	796.33618	799.20526	758.59729	831.05481	715.93073	752.06848	881.1532	1391.18945	1168.49463	850.26825	1195.74084	1265.53479	863.92877	1074.71436	1279.23706	902.83014	961.15283	1290.0553	988.0733	841.35956	1244.84399	939.8667	829.2738	1290.04126	992.40015	763.27991	1283.97729	965.17389	946.88593	921.83807	945.63202	945.06396	1141.61084	805.34113	969.25415	934.04517	797.16388	971.1842	1103.12036	950.69019	634.59644	847.86377	994.53448	481.20374	878.8338	1025.96533	227.13712	886.99274	1077.823	62.69171	925.87836	1049.64063	39.84151	977.32434	1225.18323	64.42692	919.26324	844.78839	612.28326	1175.50293	821.97626	487.38467	1152.24866	680.57703	256.22241	1142.85229	592.84161	91.18443	1094.65405	545.75293	78.5581	1051.7196	735.39465	29.18184	1083.57312	851.81488	1682.25818	1003.79968	NaN	NaN	NaN	NaN	NaN	NaN	NaN	NaN	NaN	NaN	NaN	NaN	NaN	NaN	NaN	NaN	NaN	NaN	NaN	NaN	NaN
363	3.62	953.58948	1639.32935	937.55072	960.39276	1631.6615	1069.37122	818.53693	1588.96594	946.79541	826.77002	1586.90979	1074.50037	816.46191	1430.30017	1006.98444	784.68176	1100.02637	1020.33862	924.77899	1352.84778	1005.51337	964.53571	1177.10181	1007.35645	745.83374	1262.31445	1095.80176	863.36487	1379.10913	843.98529	827.82611	1178.06213	780.78882	804.59448	1068.02502	773.41119	812.39978	917.65375	749.7951	871.00787	799.88556	782.99304	805.31641	798.26508	757.15332	840.55359	715.01263	750.55225	886.97668	1390.94727	1166.79968	856.40491	1195.52271	1264.24927	869.59393	1074.38867	1278.01733	908.52325	960.8183	1289.04944	993.97589	841.04596	1244.229	945.62396	828.88531	1289.04358	998.11243	762.99493	1283.44507	973.26697	946.42841	921.30164	952.88763	944.6297	1141.03699	813.38739	969.26501	932.53162	803.5744	971.45892	1101.93066	958.44666	634.7561	847.00745	999.40656	480.82327	877.55566	1030.61511	227.41676	886.51788	1081.21033	62.58262	924.91486	1051.94983	40.79212	976.39355	1228.29492	60.79838	919.20459	851.55072	611.78467	1174.79456	828.53058	486.8988	1151.44824	684.24542	257.52625	1142.62292	594.33899	93.64718	1095.15234	547.05457	81.79189	1052.42749	735.57538	29.17238	1083.57715	858.14337	1682.04199	1001.74939	NaN	NaN	NaN	NaN	NaN	NaN	NaN	NaN	NaN	NaN	NaN	NaN	NaN	NaN	NaN	NaN	NaN	NaN	NaN	NaN	NaN
364	3.63	960.27313	1639.66907	935.81042	966.67334	1632.13757	1067.58752	825.19812	1589.20471	944.61835	833.0838	1587.15955	1072.24255	823.14984	1430.54041	1004.95361	792.276	1099.68323	1019.04663	931.38568	1353.16895	1003.99261	971.64478	1177.41919	1006.27039	752.48767	1262.03467	1092.75427	870.74969	1378.64954	842.00952	836.07953	1177.32922	778.81049	813.07288	1067.12561	771.47314	821.43274	916.83246	748.07465	880.19366	799.24408	781.66449	814.5387	797.36627	755.52728	850.05707	714.3053	749.16083	892.95587	1391.05066	1165.35449	861.95892	1195.35217	1262.38037	875.51691	1074.41504	1276.56543	914.20709	960.74432	1287.73499	999.79211	840.86023	1243.625	951.16052	828.82703	1288.25879	1003.86432	763.01025	1283.03308	981.39844	946.48969	920.65015	960.30505	944.39673	1140.32214	821.27307	969.96478	931.43683	811.21893	971.47534	1100.96643	966.00128	635.93988	846.05396	1004.2168	481.03653	875.71082	1034.86108	227.92747	884.47931	1083.7334	62.36407	923.98224	1053.8114	41.63174	975.49329	1230.85779	58.23166	918.57373	858.59576	611.50085	1173.92395	835.49451	486.65506	1150.91736	688.32959	259.17374	1142.38342	596.03107	96.53833	1095.5874	548.61694	85.53019	1052.96118	735.80237	29.15871	1083.51318	864.5528	1682.33203	999.64075	NaN	NaN	NaN	NaN	NaN	NaN	NaN	NaN	NaN	NaN	NaN	NaN	NaN	NaN	NaN	NaN	NaN	NaN	NaN	NaN	NaN
